<svg width="2415" height="512" viewBox="0 0 2415 512" fill="none" xmlns="http://www.w3.org/2000/svg">
<path d="M256 512C397.385 512 512 397.385 512 256C512 114.615 397.385 0 256 0C114.615 0 0 114.615 0 256C0 397.385 114.615 512 256 512Z" fill="#47A7F6"/>
<path d="M362.808 368.808H244.123C178.699 368.808 125.457 315.562 125.457 250.122C125.457 184.703 178.699 131.457 244.124 131.457C309.566 131.457 362.808 184.703 362.808 250.122V368.808Z" fill="white" stroke="white" stroke-width="6"/>
<path d="M644.812 103.969C664.018 103.969 679.806 106.736 692.176 112.27C704.871 117.803 715.939 123.663 725.379 129.848V175.258C716.264 168.422 705.197 162.074 692.176 156.215C679.155 150.03 664.995 146.938 649.695 146.938C639.93 146.938 629.676 148.728 618.934 152.309C608.517 155.564 599.728 160.935 592.566 168.422C585.405 175.909 581.824 185.512 581.824 197.23C581.824 210.251 586.544 220.18 595.984 227.016C605.424 233.852 616.818 240.362 630.164 246.547L675.086 267.055C697.547 277.146 714.474 288.376 725.867 300.746C737.26 313.116 742.957 329.555 742.957 350.062C742.957 367.966 737.749 383.754 727.332 397.426C716.915 410.772 703.243 421.352 686.316 429.164C669.389 436.977 650.835 440.883 630.652 440.883C611.772 440.883 594.357 437.628 578.406 431.117C562.456 424.607 548.621 417.283 536.902 409.145V363.734C549.598 372.523 564.083 380.499 580.359 387.66C596.961 394.496 615.678 397.914 636.512 397.914C652.788 397.914 667.111 393.845 679.48 385.707C691.85 377.569 698.035 366.339 698.035 352.016C698.035 343.878 695.431 336.879 690.223 331.02C685.34 325.16 679.318 320.115 672.156 315.883C664.995 311.651 657.996 308.07 651.16 305.141L596.961 280.727C573.523 270.31 557.573 258.103 549.109 244.105C540.646 230.108 536.414 213.995 536.414 195.766C536.414 178.513 541.297 163.051 551.062 149.379C561.154 135.382 574.5 124.314 591.102 116.176C607.703 108.038 625.607 103.969 644.812 103.969ZM881.043 236.781C892.241 236.781 903.569 239.516 915.027 244.984C926.746 250.193 936.772 257.484 945.105 266.859V240.688H977.137V436H945.105V402.797C938.335 413.214 929.09 422.328 917.371 430.141C905.913 437.953 892.762 441.859 877.918 441.859C861.251 441.859 846.017 437.693 832.215 429.359C818.413 420.766 807.345 408.917 799.012 393.812C790.939 378.708 786.902 361.26 786.902 341.469C786.902 319.854 790.939 301.234 799.012 285.609C807.345 269.984 818.673 258.005 832.996 249.672C847.319 241.078 863.335 236.781 881.043 236.781ZM886.902 268.031C872.84 268.031 860.861 271.547 850.965 278.578C841.069 285.609 833.387 294.724 827.918 305.922C822.71 316.859 820.105 328.708 820.105 341.469C820.105 353.969 822.71 365.557 827.918 376.234C833.126 386.651 840.418 394.984 849.793 401.234C859.428 407.484 870.496 410.609 882.996 410.609C894.975 410.609 905.652 407.484 915.027 401.234C924.402 394.984 931.824 386.391 937.293 375.453C942.762 364.255 945.366 351.755 945.105 337.953L944.715 300.453C936.642 290.297 927.918 282.354 918.543 276.625C909.428 270.896 898.882 268.031 886.902 268.031ZM1075.57 240.688V279.75C1083.13 266.729 1092.24 256.312 1102.92 248.5C1113.6 240.688 1124.53 236.781 1135.73 236.781C1143.28 236.781 1150.05 238.083 1156.04 240.688V277.797C1147.71 272.849 1139.38 270.375 1131.04 270.375C1117.76 270.375 1106.95 275.062 1098.62 284.438C1090.55 293.812 1082.87 305.01 1075.57 318.031V436H1043.54V240.688H1075.57ZM1369.32 240.688L1277.53 436H1257.61L1169.71 240.688H1208L1266.98 384.438L1331.04 240.688H1369.32ZM1602.53 174.281V207.484H1512.29V434.828H1477.14V207.484H1386.9V174.281H1602.53ZM1727.53 236.781C1747.58 236.781 1764.25 240.948 1777.53 249.281C1790.81 257.615 1800.7 268.943 1807.21 283.266C1813.99 297.589 1817.37 313.734 1817.37 331.703V350.844H1667.37C1668.93 361.781 1672.71 371.807 1678.7 380.922C1684.69 390.036 1692.5 397.328 1702.14 402.797C1711.77 408.005 1722.84 410.609 1735.34 410.609C1749.4 410.609 1762.55 407.094 1774.79 400.062C1787.03 392.771 1797.32 384.828 1805.65 376.234L1805.26 411C1801.62 415.427 1796.15 420.115 1788.86 425.062C1781.82 429.75 1773.62 433.656 1764.25 436.781C1755.13 440.167 1745.5 441.859 1735.34 441.859C1715.55 441.859 1697.97 437.172 1682.61 427.797C1667.24 418.422 1655.13 406.052 1646.28 390.688C1637.68 375.062 1633.39 358.005 1633.39 339.516C1633.39 321.026 1637.42 303.969 1645.5 288.344C1653.57 272.719 1664.64 260.219 1678.7 250.844C1693.02 241.469 1709.3 236.781 1727.53 236.781ZM1727.53 268.031C1711.38 268.031 1698.1 273.5 1687.68 284.438C1677.27 295.115 1670.76 308.135 1668.15 323.5H1785.73C1784.43 310.74 1780.78 300.323 1774.79 292.25C1769.06 284.177 1762.03 278.188 1753.7 274.281C1745.37 270.115 1736.64 268.031 1727.53 268.031ZM1950.57 236.781C1961.77 236.781 1973.1 239.516 1984.56 244.984C1996.28 250.193 2006.3 257.484 2014.64 266.859V240.688H2046.67V436H2014.64V402.797C2007.87 413.214 1998.62 422.328 1986.9 430.141C1975.44 437.953 1962.29 441.859 1947.45 441.859C1930.78 441.859 1915.55 437.693 1901.75 429.359C1887.94 420.766 1876.88 408.917 1868.54 393.812C1860.47 378.708 1856.43 361.26 1856.43 341.469C1856.43 319.854 1860.47 301.234 1868.54 285.609C1876.88 269.984 1888.2 258.005 1902.53 249.672C1916.85 241.078 1932.87 236.781 1950.57 236.781ZM1956.43 268.031C1942.37 268.031 1930.39 271.547 1920.5 278.578C1910.6 285.609 1902.92 294.724 1897.45 305.922C1892.24 316.859 1889.64 328.708 1889.64 341.469C1889.64 353.969 1892.24 365.557 1897.45 376.234C1902.66 386.651 1909.95 394.984 1919.32 401.234C1928.96 407.484 1940.03 410.609 1952.53 410.609C1964.51 410.609 1975.18 407.484 1984.56 401.234C1993.93 394.984 2001.36 386.391 2006.82 375.453C2012.29 364.255 2014.9 351.755 2014.64 337.953L2014.25 300.453C2006.17 290.297 1997.45 282.354 1988.07 276.625C1978.96 270.896 1968.41 268.031 1956.43 268.031ZM2145.11 240.688V265.688C2151.36 258.656 2159.3 252.146 2168.93 246.156C2178.83 239.906 2190.42 236.781 2203.7 236.781C2217.76 236.781 2230.91 240.167 2243.15 246.938C2255.39 253.448 2264.77 263.344 2271.28 276.625C2280.39 265.688 2290.29 256.312 2300.96 248.5C2311.64 240.688 2324.14 236.781 2338.46 236.781C2351.75 236.781 2364.12 239.776 2375.57 245.766C2387.29 251.495 2396.67 260.349 2403.7 272.328C2410.99 284.047 2414.64 298.891 2414.64 316.859V436H2382.61L2382.21 319.984C2382.21 303.057 2377.79 290.167 2368.93 281.312C2360.34 272.458 2348.36 268.031 2333 268.031C2321.8 268.031 2312.03 271.547 2303.7 278.578C2295.37 285.609 2287.42 293.812 2279.87 303.188V436H2247.84L2247.45 319.984C2247.45 303.057 2243.02 290.167 2234.17 281.312C2225.57 272.458 2213.6 268.031 2198.23 268.031C2187.55 268.031 2177.79 271.156 2168.93 277.406C2160.34 283.656 2152.4 291.208 2145.11 300.062V436H2113.07V240.688H2145.11Z" fill="black"/>
</svg>
